<svg width="128" height="25" viewBox="0 0 128 25" fill="none" xmlns="http://www.w3.org/2000/svg">
<path d="M60.2953 13.9242V20.4042C60.0408 20.7111 59.6477 21.0443 59.1161 21.4037C58.5845 21.7556 57.8995 22.0588 57.0609 22.3134C56.2224 22.5679 55.2079 22.6952 54.0175 22.6952C52.9618 22.6952 51.9997 22.523 51.1313 22.1786C50.2628 21.8267 49.5141 21.3138 48.8852 20.64C48.2637 19.9662 47.7846 19.1426 47.4477 18.1693C47.1107 17.1885 46.9423 16.0692 46.9423 14.8114V13.7894C46.9423 12.5316 47.1033 11.4123 47.4252 10.4315C47.7546 9.45072 48.2226 8.62341 48.829 7.94958C49.4355 7.27576 50.1579 6.7629 50.9965 6.41101C51.835 6.05912 52.7672 5.88318 53.7929 5.88318C55.2154 5.88318 56.3834 6.11528 57.2968 6.57947C58.2102 7.03617 58.9065 7.67257 59.3857 8.48865C59.8723 9.29724 60.1718 10.2256 60.2841 11.2738H57.016C56.9337 10.7198 56.7764 10.2369 56.5443 9.82507C56.3122 9.41329 55.9791 9.09135 55.5448 8.85925C55.1181 8.62716 54.564 8.51111 53.8827 8.51111C53.3212 8.51111 52.8196 8.62716 52.3778 8.85925C51.9436 9.08386 51.5767 9.41703 51.2773 9.85876C50.9778 10.3005 50.7494 10.847 50.5922 11.4984C50.435 12.1498 50.3564 12.906 50.3564 13.767V14.8114C50.3564 15.6649 50.4387 16.4211 50.6034 17.08C50.7681 17.7313 51.0115 18.2816 51.3334 18.7308C51.6628 19.1726 52.0671 19.5057 52.5463 19.7303C53.0255 19.955 53.5832 20.0673 54.2196 20.0673C54.7512 20.0673 55.1929 20.0223 55.5448 19.9325C55.9042 19.8427 56.1925 19.7341 56.4096 19.6068C56.6342 19.472 56.8064 19.3448 56.9262 19.225V16.3275H53.849V13.9242H60.2953ZM66.225 10.3192V22.4706H62.9794V10.3192H66.225ZM62.7773 7.15222C62.7773 6.68054 62.942 6.29122 63.2714 5.98425C63.6008 5.67729 64.0426 5.5238 64.5966 5.5238C65.1431 5.5238 65.5811 5.67729 65.9106 5.98425C66.2475 6.29122 66.4159 6.68054 66.4159 7.15222C66.4159 7.6239 66.2475 8.01322 65.9106 8.32019C65.5811 8.62716 65.1431 8.78064 64.5966 8.78064C64.0426 8.78064 63.6008 8.62716 63.2714 8.32019C62.942 8.01322 62.7773 7.6239 62.7773 7.15222ZM74.85 10.3192V12.6102H67.7748V10.3192H74.85ZM69.5268 7.32068H72.7611V18.8094C72.7611 19.1613 72.8061 19.4309 72.8959 19.618C72.9932 19.8052 73.1355 19.9362 73.3227 20.0111C73.5098 20.0785 73.7457 20.1122 74.0302 20.1122C74.2323 20.1122 74.412 20.1047 74.5692 20.0897C74.734 20.0673 74.8725 20.0448 74.9848 20.0223L74.996 22.4032C74.719 22.493 74.4195 22.5642 74.0976 22.6166C73.7756 22.669 73.42 22.6952 73.0307 22.6952C72.3194 22.6952 71.698 22.5791 71.1664 22.347C70.6423 22.1075 70.238 21.7256 69.9535 21.2015C69.669 20.6774 69.5268 19.9886 69.5268 19.1351V7.32068ZM79.8476 5.22058V22.4706H76.6132V5.22058H79.8476ZM79.3871 15.9681H78.4999C78.5074 15.1221 78.6197 14.3435 78.8368 13.6322C79.0539 12.9135 79.3647 12.292 79.769 11.7679C80.1732 11.2364 80.6562 10.8246 81.2177 10.5326C81.7867 10.2406 82.4156 10.0946 83.1044 10.0946C83.7034 10.0946 84.2462 10.1807 84.7328 10.3529C85.227 10.5176 85.65 10.7872 86.0019 11.1615C86.3612 11.5284 86.6383 12.0113 86.8329 12.6102C87.0276 13.2092 87.1249 13.9354 87.1249 14.7889V22.4706H83.8681V14.7665C83.8681 14.2274 83.7895 13.8044 83.6322 13.4974C83.4825 13.183 83.2616 12.9621 82.9696 12.8348C82.6851 12.7001 82.3332 12.6327 81.914 12.6327C81.4498 12.6327 81.053 12.7188 80.7235 12.891C80.4016 13.0632 80.1433 13.3028 79.9486 13.6097C79.754 13.9092 79.6117 14.2611 79.5219 14.6654C79.432 15.0697 79.3871 15.5039 79.3871 15.9681ZM96.7719 19.5619V10.3192H100.006V22.4706H96.9628L96.7719 19.5619ZM97.1313 17.0687L98.0858 17.0463C98.0858 17.8549 97.9923 18.6073 97.8051 19.3036C97.6179 19.9924 97.3371 20.5913 96.9628 21.1005C96.5885 21.6021 96.1168 21.9952 95.5478 22.2797C94.9787 22.5567 94.3087 22.6952 93.5375 22.6952C92.946 22.6952 92.3995 22.6128 91.8979 22.4481C91.4037 22.2759 90.977 22.0101 90.6176 21.6508C90.2657 21.2839 89.9887 20.816 89.7865 20.2469C89.5919 19.6705 89.4945 18.9779 89.4945 18.1693V10.3192H92.7289V18.1918C92.7289 18.5511 92.7701 18.8544 92.8524 19.1014C92.9423 19.3485 93.0658 19.5507 93.2231 19.7079C93.3803 19.8651 93.5637 19.9774 93.7733 20.0448C93.9905 20.1122 94.2301 20.1459 94.4921 20.1459C95.1584 20.1459 95.6825 20.0111 96.0644 19.7416C96.4537 19.472 96.727 19.1052 96.8842 18.641C97.0489 18.1693 97.1313 17.6452 97.1313 17.0687ZM102.477 5.22058H105.711V19.6854L105.386 22.4706H102.477V5.22058ZM113.404 16.2714V16.5072C113.404 17.4131 113.307 18.2442 113.112 19.0004C112.925 19.7566 112.633 20.4117 112.236 20.9657C111.839 21.5122 111.345 21.939 110.754 22.246C110.17 22.5455 109.481 22.6952 108.687 22.6952C107.946 22.6952 107.302 22.5455 106.756 22.246C106.217 21.9465 105.764 21.5235 105.397 20.9769C105.03 20.4304 104.734 19.7902 104.51 19.0565C104.285 18.3228 104.117 17.5217 104.004 16.6532V16.1366C104.117 15.2681 104.285 14.467 104.51 13.7333C104.734 12.9996 105.03 12.3594 105.397 11.8129C105.764 11.2663 106.217 10.8433 106.756 10.5438C107.295 10.2443 107.931 10.0946 108.665 10.0946C109.466 10.0946 110.162 10.2481 110.754 10.5551C111.353 10.8545 111.847 11.2813 112.236 11.8353C112.633 12.3819 112.925 13.0332 113.112 13.7894C113.307 14.5381 113.404 15.3654 113.404 16.2714ZM110.17 16.5072V16.2714C110.17 15.7772 110.132 15.313 110.058 14.8788C109.99 14.4371 109.87 14.0515 109.698 13.722C109.526 13.3851 109.29 13.1193 108.991 12.9247C108.699 12.73 108.321 12.6327 107.856 12.6327C107.415 12.6327 107.04 12.7076 106.733 12.8573C106.426 13.007 106.172 13.2167 105.97 13.4862C105.775 13.7557 105.629 14.0777 105.532 14.452C105.434 14.8189 105.374 15.2232 105.352 15.6649V17.1361C105.374 17.7276 105.472 18.2517 105.644 18.7084C105.824 19.1576 106.093 19.5132 106.453 19.7753C106.819 20.0298 107.295 20.1571 107.879 20.1571C108.336 20.1571 108.714 20.0673 109.013 19.8876C109.313 19.7079 109.545 19.4533 109.709 19.1239C109.882 18.7945 110.001 18.4089 110.069 17.9672C110.136 17.5179 110.17 17.0313 110.17 16.5072Z" fill="white" fill-opacity="0.9"/>
<path d="M17.7246 2.08334C15.7849 2.08334 13.8642 2.35278 12.0722 2.87626C10.2801 3.39975 8.65185 4.16704 7.28028 5.13431C4.51027 7.08782 2.9541 9.73734 2.9541 12.5C2.9541 17.1042 7.19323 21.0104 13.0571 22.3958C13.7956 22.4792 14.032 22.1563 14.032 21.875C14.032 21.6354 14.032 20.9792 14.032 20.1146C9.94055 20.7396 9.06909 18.7188 9.06909 18.7188C8.38964 17.5104 7.42956 17.1875 7.42956 17.1875C6.08545 16.5417 7.53295 16.5625 7.53295 16.5625C9.01 16.6354 9.79284 17.6354 9.79284 17.6354C11.0779 19.2188 13.2491 18.75 14.0911 18.5C14.224 17.8229 14.608 17.3646 15.0216 17.1042C11.7425 16.8438 8.30102 15.9479 8.30102 11.9792C8.30102 10.8229 8.8623 9.89584 9.82238 9.15626C9.67468 8.89584 9.15771 7.81251 9.97009 6.40626C9.97009 6.40626 11.2108 6.12501 14.032 7.46876C15.1988 7.23959 16.4691 7.12501 17.7246 7.12501C18.9801 7.12501 20.2503 7.23959 21.4172 7.46876C24.2384 6.12501 25.4791 6.40626 25.4791 6.40626C26.2915 7.81251 25.7745 8.89584 25.6268 9.15626C26.5869 9.89584 27.1482 10.8229 27.1482 11.9792C27.1482 15.9583 23.6919 16.8333 20.3981 17.0938C20.9298 17.4167 21.4172 18.0521 21.4172 19.0208C21.4172 20.4167 21.4172 21.5417 21.4172 21.875C21.4172 22.1563 21.6535 22.4896 22.4068 22.3958C28.2707 21 32.4951 17.1042 32.4951 12.5C32.4951 11.1321 32.113 9.77753 31.3708 8.51372C30.6285 7.24991 29.5405 6.10159 28.1689 5.13431C26.7973 4.16704 25.1691 3.39975 23.377 2.87626C21.585 2.35278 19.6643 2.08334 17.7246 2.08334Z" fill="white" fill-opacity="0.9"/>
</svg>
