<svg width="56" height="56" viewBox="0 0 56 56" fill="none" xmlns="http://www.w3.org/2000/svg">
<path d="M43.8666 23.1233C41.23 23.1233 38.8733 24.4067 37.4033 26.3667C35.9333 24.4067 33.5766 23.1233 30.94 23.1233C26.4833 23.1233 22.8666 26.7633 22.8666 31.2433C22.8666 32.97 23.1466 34.58 23.6133 36.05C25.9 43.3067 32.9933 47.67 36.4933 48.86C36.9833 49.0233 37.8 49.0233 38.29 48.86C41.79 47.67 48.8833 43.33 51.17 36.05C51.66 34.5567 51.9166 32.97 51.9166 31.2433C51.94 26.7633 48.3233 23.1233 43.8666 23.1233Z" fill="#9747FF"/>
<path d="M48.4167 19.46C48.4167 19.9967 47.88 20.3467 47.3667 20.2067C44.2167 19.39 40.7634 20.0667 38.15 21.9333C37.6367 22.3067 36.9367 22.3067 36.4467 21.9333C34.6034 20.58 32.3634 19.8333 30.0067 19.8333C23.9867 19.8333 19.0867 24.7567 19.0867 30.8233C19.0867 37.4033 22.2367 42.3267 25.41 45.6167C25.5734 45.78 25.4334 46.06 25.2234 45.9667C18.8534 43.7967 4.66669 34.79 4.66669 19.46C4.66669 12.6933 10.1034 7.23334 16.8234 7.23334C20.8134 7.23334 24.3367 9.14667 26.5534 12.11C28.7934 9.14667 32.3167 7.23334 36.2834 7.23334C42.98 7.23334 48.4167 12.6933 48.4167 19.46Z" fill="#9747FF"/>
</svg>
