<svg width="94" height="94" viewBox="0 0 94 94" fill="none" xmlns="http://www.w3.org/2000/svg">
<g id="vuesax/bold/lovely">
<g id="lovely">
<path id="Vector" d="M73.6333 38.8142C69.2075 38.8142 65.2517 40.9683 62.7842 44.2583C60.3167 40.9683 56.3608 38.8142 51.935 38.8142C44.4542 38.8142 38.3833 44.9242 38.3833 52.4442C38.3833 55.3425 38.8533 58.045 39.6367 60.5125C43.475 72.6933 55.3817 80.0175 61.2567 82.015C62.0792 82.2892 63.45 82.2892 64.2725 82.015C70.1475 80.0175 82.0542 72.7325 85.8925 60.5125C86.715 58.0058 87.1458 55.3425 87.1458 52.4442C87.185 44.9242 81.1142 38.8142 73.6333 38.8142Z" fill="#FFFF00"/>
<path id="Vector_2" d="M81.2708 32.665C81.2708 33.5658 80.37 34.1533 79.5083 33.9183C74.2208 32.5475 68.4242 33.6833 64.0375 36.8167C63.1758 37.4433 62.0008 37.4433 61.1783 36.8167C58.0842 34.545 54.3242 33.2917 50.3683 33.2917C40.2633 33.2917 32.0383 41.5558 32.0383 51.7392C32.0383 62.7842 37.3258 71.0483 42.6525 76.5708C42.9267 76.845 42.6917 77.315 42.3392 77.1583C31.6467 73.5158 7.83333 58.3975 7.83333 32.665C7.83333 21.3067 16.9592 12.1417 28.2392 12.1417C34.9367 12.1417 40.8508 15.3533 44.5717 20.3275C48.3317 15.3533 54.2458 12.1417 60.9042 12.1417C72.145 12.1417 81.2708 21.3067 81.2708 32.665Z" fill="#FFFF00"/>
</g>
</g>
</svg>
