<svg width="150" height="25" viewBox="0 0 150 25" fill="none" xmlns="http://www.w3.org/2000/svg">
<path d="M56.8045 19.8427V22.4706H48.5725V19.8427H56.8045ZM49.6619 6.11902V22.4706H46.2927V6.11902H49.6619ZM61.948 10.3192V22.4706H58.7024V10.3192H61.948ZM58.5003 7.15222C58.5003 6.68054 58.665 6.29122 58.9944 5.98425C59.3238 5.67729 59.7656 5.5238 60.3196 5.5238C60.8661 5.5238 61.3041 5.67729 61.6336 5.98425C61.9705 6.29122 62.1389 6.68054 62.1389 7.15222C62.1389 7.6239 61.9705 8.01322 61.6336 8.32019C61.3041 8.62716 60.8661 8.78064 60.3196 8.78064C59.7656 8.78064 59.3238 8.62716 58.9944 8.32019C58.665 8.01322 58.5003 7.6239 58.5003 7.15222ZM67.7879 12.9135V22.4706H64.5535V10.3192H67.5857L67.7879 12.9135ZM67.3162 15.9681H66.4402C66.4402 15.0697 66.5562 14.2611 66.7883 13.5424C67.0204 12.8161 67.3461 12.1984 67.7654 11.6893C68.1847 11.1727 68.6826 10.7797 69.259 10.5101C69.843 10.2331 70.4944 10.0946 71.2132 10.0946C71.7822 10.0946 72.3025 10.177 72.7742 10.3417C73.2459 10.5064 73.6502 10.7684 73.9871 11.1278C74.3315 11.4872 74.5935 11.9626 74.7732 12.5541C74.9604 13.1455 75.054 13.868 75.054 14.7216V22.4706H71.7971V14.7103C71.7971 14.1713 71.7223 13.752 71.5725 13.4525C71.4228 13.153 71.2019 12.9434 70.9099 12.8236C70.6254 12.6963 70.2735 12.6327 69.8543 12.6327C69.42 12.6327 69.0419 12.7188 68.72 12.891C68.4055 13.0632 68.1435 13.3028 67.9339 13.6097C67.7317 13.9092 67.5782 14.2611 67.4734 14.6654C67.3686 15.0697 67.3162 15.5039 67.3162 15.9681ZM80.7478 5.20935V22.4706H77.5134V5.20935H80.7478ZM88.407 10.3192L83.1287 16.3387L80.2986 19.2025L79.1194 16.8666L81.3655 14.014L84.5213 10.3192H88.407ZM85.0491 22.4706L81.4553 16.8553L83.6902 14.9012L88.7776 22.4706H85.0491ZM95.1677 22.6952C94.2244 22.6952 93.3784 22.5455 92.6297 22.246C91.881 21.939 91.2446 21.516 90.7205 20.9769C90.2039 20.4379 89.8071 19.8127 89.53 19.1014C89.253 18.3827 89.1145 17.619 89.1145 16.8104V16.3612C89.1145 15.4403 89.2455 14.598 89.5076 13.8344C89.7696 13.0707 90.144 12.4081 90.6306 11.8466C91.1248 11.285 91.7237 10.8545 92.4275 10.5551C93.1313 10.2481 93.9249 10.0946 94.8084 10.0946C95.6694 10.0946 96.433 10.2369 97.0994 10.5214C97.7657 10.8059 98.3235 11.2102 98.7727 11.7343C99.2294 12.2583 99.5738 12.8872 99.8059 13.621C100.038 14.3472 100.154 15.1558 100.154 16.0468V17.3944H90.4959V15.2382H96.9758V14.9911C96.9758 14.5419 96.8935 14.1413 96.7288 13.7894C96.5715 13.4301 96.332 13.1455 96.01 12.9359C95.6881 12.7263 95.2763 12.6215 94.7747 12.6215C94.3479 12.6215 93.9811 12.715 93.6741 12.9022C93.3671 13.0894 93.1163 13.3514 92.9216 13.6884C92.7345 14.0253 92.5922 14.4221 92.4949 14.8788C92.405 15.328 92.3601 15.8221 92.3601 16.3612V16.8104C92.3601 17.2971 92.4275 17.7463 92.5623 18.1581C92.7045 18.5699 92.9029 18.9255 93.1575 19.225C93.4195 19.5245 93.734 19.7566 94.1008 19.9213C94.4752 20.086 94.8982 20.1683 95.3699 20.1683C95.9539 20.1683 96.4967 20.056 96.9983 19.8314C97.5074 19.5993 97.9454 19.2512 98.3123 18.787L99.8845 20.494C99.63 20.8609 99.2818 21.2128 98.8401 21.5497C98.4059 21.8866 97.8818 22.1636 97.2678 22.3807C96.6539 22.5904 95.9539 22.6952 95.1677 22.6952ZM109.172 19.8202V5.22058H112.429V22.4706H109.498L109.172 19.8202ZM101.49 16.5409V16.3051C101.49 15.3767 101.595 14.5344 101.805 13.7782C102.015 13.0145 102.322 12.3594 102.726 11.8129C103.13 11.2663 103.628 10.8433 104.219 10.5438C104.811 10.2443 105.485 10.0946 106.241 10.0946C106.952 10.0946 107.574 10.2443 108.105 10.5438C108.644 10.8433 109.101 11.2701 109.475 11.8241C109.857 12.3706 110.164 13.0183 110.396 13.767C110.628 14.5082 110.797 15.3205 110.902 16.204V16.7206C110.797 17.5666 110.628 18.3527 110.396 19.079C110.164 19.8052 109.857 20.4416 109.475 20.9882C109.101 21.5272 108.644 21.9465 108.105 22.246C107.566 22.5455 106.937 22.6952 106.219 22.6952C105.462 22.6952 104.789 22.5417 104.197 22.2347C103.613 21.9278 103.119 21.4973 102.715 20.9432C102.318 20.3892 102.015 19.7378 101.805 18.9891C101.595 18.2404 101.49 17.4244 101.49 16.5409ZM104.725 16.3051V16.5409C104.725 17.0425 104.762 17.5105 104.837 17.9447C104.92 18.3789 105.051 18.7645 105.23 19.1014C105.417 19.4309 105.657 19.6892 105.949 19.8763C106.248 20.056 106.612 20.1459 107.038 20.1459C107.592 20.1459 108.049 20.0223 108.408 19.7753C108.768 19.5207 109.041 19.1726 109.228 18.7308C109.423 18.2891 109.535 17.78 109.565 17.2035V15.7323C109.543 15.2606 109.475 14.8376 109.363 14.4633C109.258 14.0814 109.101 13.7557 108.891 13.4862C108.689 13.2167 108.435 13.007 108.128 12.8573C107.828 12.7076 107.473 12.6327 107.061 12.6327C106.642 12.6327 106.282 12.73 105.983 12.9247C105.683 13.1119 105.44 13.3702 105.253 13.6996C105.073 14.029 104.938 14.4183 104.848 14.8676C104.766 15.3093 104.725 15.7885 104.725 16.3051ZM118.37 10.3192V22.4706H115.124V10.3192H118.37ZM114.922 7.15222C114.922 6.68054 115.087 6.29122 115.416 5.98425C115.746 5.67729 116.187 5.5238 116.741 5.5238C117.288 5.5238 117.726 5.67729 118.055 5.98425C118.392 6.29122 118.561 6.68054 118.561 7.15222C118.561 7.6239 118.392 8.01322 118.055 8.32019C117.726 8.62716 117.288 8.78064 116.741 8.78064C116.187 8.78064 115.746 8.62716 115.416 8.32019C115.087 8.01322 114.922 7.6239 114.922 7.15222ZM124.21 12.9135V22.4706H120.975V10.3192H124.008L124.21 12.9135ZM123.738 15.9681H122.862C122.862 15.0697 122.978 14.2611 123.21 13.5424C123.442 12.8161 123.768 12.1984 124.187 11.6893C124.607 11.1727 125.104 10.7797 125.681 10.5101C126.265 10.2331 126.916 10.0946 127.635 10.0946C128.204 10.0946 128.724 10.177 129.196 10.3417C129.668 10.5064 130.072 10.7684 130.409 11.1278C130.753 11.4872 131.015 11.9626 131.195 12.5541C131.382 13.1455 131.476 13.868 131.476 14.7216V22.4706H128.219V14.7103C128.219 14.1713 128.144 13.752 127.994 13.4525C127.845 13.153 127.624 12.9434 127.332 12.8236C127.047 12.6963 126.695 12.6327 126.276 12.6327C125.842 12.6327 125.464 12.7188 125.142 12.891C124.827 13.0632 124.565 13.3028 124.356 13.6097C124.154 13.9092 124 14.2611 123.895 14.6654C123.79 15.0697 123.738 15.5039 123.738 15.9681Z" fill="white" fill-opacity="0.9"/>
<path d="M28.0639 3.125C28.8474 3.125 29.5988 3.34449 30.1528 3.73519C30.7068 4.12589 31.018 4.6558 31.018 5.20833V19.7917C31.018 20.3442 30.7068 20.8741 30.1528 21.2648C29.5988 21.6555 28.8474 21.875 28.0639 21.875H7.38525C6.60178 21.875 5.85039 21.6555 5.29639 21.2648C4.74239 20.8741 4.43115 20.3442 4.43115 19.7917V5.20833C4.43115 4.6558 4.74239 4.12589 5.29639 3.73519C5.85039 3.34449 6.60178 3.125 7.38525 3.125H28.0639ZM27.3254 19.2708V13.75C27.3254 12.8494 26.8181 11.9856 25.9151 11.3488C25.0121 10.7119 23.7873 10.3542 22.5102 10.3542C21.2547 10.3542 19.7925 10.8958 19.0835 11.7083V10.5521H14.9625V19.2708H19.0835V14.1354C19.0835 13.3333 19.9993 12.6771 21.1366 12.6771C21.685 12.6771 22.211 12.8307 22.5988 13.1042C22.9866 13.3777 23.2044 13.7486 23.2044 14.1354V19.2708H27.3254ZM10.1621 8.91667C10.8202 8.91667 11.4514 8.73229 11.9167 8.4041C12.3821 8.07591 12.6435 7.6308 12.6435 7.16667C12.6435 6.19792 11.5358 5.40625 10.1621 5.40625C9.50007 5.40625 8.86514 5.59172 8.39701 5.92186C7.92888 6.25201 7.66589 6.69978 7.66589 7.16667C7.66589 8.13542 8.78845 8.91667 10.1621 8.91667ZM12.2152 19.2708V10.5521H8.12378V19.2708H12.2152Z" fill="white" fill-opacity="0.9"/>
</svg>
